<svg width="32" height="32" viewBox="0 0 32 32" fill="none" xmlns="http://www.w3.org/2000/svg">
<path d="M20.33 21.48L22.57 19.24C22.8717 18.942 23.2534 18.7381 23.6688 18.6529C24.0842 18.5677 24.5154 18.6049 24.91 18.76L27.64 19.85C28.0388 20.0119 28.3808 20.2882 28.6228 20.6441C28.8648 21 28.9961 21.4196 29 21.85V26.85C28.9977 27.1428 28.9361 27.4321 28.8191 27.7004C28.702 27.9688 28.5318 28.2107 28.3188 28.4116C28.1058 28.6124 27.8543 28.7681 27.5796 28.8692C27.3048 28.9704 27.0124 29.0149 26.72 29C7.59 27.81 3.73 11.61 3 5.41C2.96611 5.10554 2.99707 4.79735 3.09084 4.50571C3.18462 4.21407 3.33908 3.9456 3.54406 3.71794C3.74905 3.49028 3.99991 3.30861 4.28015 3.18487C4.56039 3.06113 4.86366 2.99812 5.17 3H10C10.431 3.00128 10.8518 3.13147 11.2082 3.37383C11.5646 3.61619 11.8404 3.95964 12 4.36L13.09 7.09C13.2502 7.48307 13.2911 7.91465 13.2075 8.33081C13.124 8.74698 12.9196 9.1293 12.62 9.43L10.38 11.67C10.38 11.67 11.67 20.4 20.33 21.48Z" fill="black"/>
</svg>
